<?xml version="1.0" encoding="UTF-8"?>
<svg width="32" height="32" viewBox="0 0 32 32" fill="none" xmlns="http://www.w3.org/2000/svg">
  <defs>
    <linearGradient id="bgGradient" x1="16" y1="2" x2="16" y2="30" gradientUnits="userSpaceOnUse">
      <stop offset="0" stop-color="#2196F3"/>
      <stop offset="1" stop-color="#1565C0"/>
    </linearGradient>
    <filter id="shadow" x="-10%" y="-10%" width="120%" height="120%">
      <feDropShadow dx="0" dy="1" stdDeviation="1" flood-opacity="0.3" flood-color="#000000"/>
    </filter>
  </defs>
  
  <!-- Background circle -->
  <circle cx="16" cy="16" r="14" fill="url(#bgGradient)"/>
  
  <!-- Map grid lines -->
  <path d="M6 16H26" stroke="white" stroke-opacity="0.2" stroke-width="0.5"/>
  <path d="M16 6V26" stroke="white" stroke-opacity="0.2" stroke-width="0.5"/>
  <path d="M8 10L24 22" stroke="white" stroke-opacity="0.2" stroke-width="0.5"/>
  <path d="M8 22L24 10" stroke="white" stroke-opacity="0.2" stroke-width="0.5"/>
  
  <!-- Curved route/flow lines -->
  <path d="M5 18C8 15 12 20 16 16C20 12 24 17 27 14" stroke="white" stroke-opacity="0.6" stroke-width="1.5" fill="none" stroke-linecap="round"/>
  <path d="M5 14C8 17 12 12 16 16C20 20 24 15 27 18" stroke="white" stroke-opacity="0.6" stroke-width="1.5" fill="none" stroke-linecap="round"/>
  
  <!-- Transit vehicle symbol -->
  <g filter="url(#shadow)">
    <rect x="12" y="11" width="8" height="10" rx="2" fill="white"/>
    <rect x="13" y="13" width="6" height="2" rx="0.5" fill="#1565C0" fill-opacity="0.8"/>
    <circle cx="13" cy="19" r="1" fill="#1565C0"/>
    <circle cx="19" cy="19" r="1" fill="#1565C0"/>
  </g>
  
  <!-- Pulsing animation for "real-time" effect -->
  <circle cx="16" cy="16" r="14" fill="none" stroke="white" stroke-width="0.75" stroke-opacity="0.5">
    <animate attributeName="r" values="12;14;12" dur="3s" repeatCount="indefinite"/>
    <animate attributeName="stroke-opacity" values="0.7;0.2;0.7" dur="3s" repeatCount="indefinite"/>
  </circle>
  
  <!-- Halo ring -->
  <circle cx="16" cy="16" r="14" stroke="#64B5F6" stroke-width="1" stroke-opacity="0.5" fill="none"/>
</svg>
