<?xml version="1.0" encoding="UTF-8"?>
<svg width="32" height="32" viewBox="0 0 32 32" fill="none" xmlns="http://www.w3.org/2000/svg">
  <defs>
    <linearGradient id="vehicleGradient" x1="16" y1="6" x2="16" y2="26" gradientUnits="userSpaceOnUse">
      <stop offset="0" stop-color="#2979FF"/>
      <stop offset="1" stop-color="#1565C0"/>
    </linearGradient>
    <filter id="glow" x="-50%" y="-50%" width="200%" height="200%">
      <feGaussianBlur stdDeviation="1.5" result="blur"/>
      <feComposite in="SourceGraphic" in2="blur" operator="over"/>
    </filter>
  </defs>
  
  <!-- Pulse effect -->
  <circle cx="16" cy="16" r="14" fill="rgba(41, 121, 255, 0.1)">
    <animate attributeName="r" values="12;14;12" dur="2s" repeatCount="indefinite"/>
    <animate attributeName="opacity" values="0.7;0.3;0.7" dur="2s" repeatCount="indefinite"/>
  </circle>
  
  <g filter="url(#glow)">
    <!-- Main vehicle body -->
    <rect x="8" y="8" width="16" height="16" rx="3" fill="url(#vehicleGradient)" stroke="#0D47A1" stroke-width="1.5"/>
    
    <!-- Front windshield -->
    <path d="M10 13C10 12.4477 10.4477 12 11 12H21C21.5523 12 22 12.4477 22 13V15C22 15.5523 21.5523 16 21 16H11C10.4477 16 10 15.5523 10 15V13Z" fill="#E3F2FD" fill-opacity="0.9"/>
    
    <!-- Wheels -->
    <circle cx="11" cy="23" r="2" fill="#424242" stroke="#212121" stroke-width="0.5"/>
    <circle cx="21" cy="23" r="2" fill="#424242" stroke="#212121" stroke-width="0.5"/>
    
    <!-- Route display -->
    <rect x="12" y="18" width="8" height="3" rx="1" fill="#E3F2FD"/>
    <text x="16" y="20.25" font-family="Arial, sans-serif" font-size="2.5" font-weight="bold" fill="#0D47A1" text-anchor="middle" dominant-baseline="middle">BUS</text>
    
    <!-- Front and back lights -->
    <rect x="8" y="17" width="1" height="2" rx="0.5" fill="#FFF9C4"/> <!-- Headlight -->
    <rect x="23" y="17" width="1" height="2" rx="0.5" fill="#FF5252"/> <!-- Taillight -->
    
    <!-- Direction indicator on top -->
    <polygon points="16,5 19,8 13,8" fill="#0D47A1"/>
  </g>
  
  <!-- Transit dots symbol -->
  <circle cx="16" cy="16" r="1.5" fill="#FFFFFF"/>
  <circle cx="12" cy="16" r="1" fill="#FFFFFF" opacity="0.7"/>
  <circle cx="20" cy="16" r="1" fill="#FFFFFF" opacity="0.7"/>
</svg>
